<svg width="300" height="509" viewBox="0 0 300 509" fill="none" xmlns="http://www.w3.org/2000/svg">
<mask id="path-1-outside-1_119_8" maskUnits="userSpaceOnUse" x="0" y="0" width="300" height="509" fill="black">
<rect fill="white" width="300" height="509"/>
<path d="M228.674 106.02C228.674 112.878 226.438 118.841 221.965 123.91C217.79 128.979 212.721 133.154 206.758 136.434C201.391 139.714 195.874 143.292 190.209 147.168C184.544 150.746 179.326 154.921 174.555 159.691C169.784 164.164 165.908 169.233 162.926 174.898C159.944 180.564 158.453 186.975 158.453 194.131C158.453 200.393 159.944 206.058 162.926 211.127C165.908 216.196 169.486 221.265 173.66 226.334C178.133 231.105 182.904 236.174 187.973 241.541C193.34 246.61 198.111 252.424 202.285 258.984C206.758 265.246 210.485 272.402 213.467 280.453C216.449 288.504 217.939 297.896 217.939 308.631C217.939 316.085 216.299 324.583 213.02 334.125C210.038 343.368 205.863 352.761 200.496 362.303C195.129 371.844 188.718 381.088 181.264 390.033C174.107 398.979 166.355 407.029 158.006 414.186C149.955 421.044 141.457 426.56 132.512 430.734C123.566 435.207 114.919 437.443 106.57 437.443C97.3268 437.443 89.127 434.909 81.9707 429.84C74.8145 424.771 71.2363 417.167 71.2363 407.029C71.2363 400.171 72.8763 393.91 76.1562 388.244C79.4362 382.281 83.4616 376.615 88.2324 371.248C93.0033 365.881 98.2214 360.663 103.887 355.594C109.85 350.525 115.217 345.456 119.988 340.387C124.759 335.318 128.785 330.1 132.064 324.732C135.344 319.067 136.984 313.104 136.984 306.842C136.984 298.195 133.854 289.398 127.592 280.453C121.628 271.21 114.919 261.817 107.465 252.275C100.01 242.436 93.1523 232.447 86.8906 222.309C80.9271 212.171 77.9453 201.883 77.9453 191.447C77.9453 178.626 81.3743 165.208 88.2324 151.193C95.0905 136.881 103.887 123.91 114.621 112.281C125.355 100.354 137.432 90.5143 150.85 82.7617C164.268 75.0091 177.536 71.1328 190.656 71.1328C201.092 71.1328 210.038 74.2637 217.492 80.5254C224.947 86.7871 228.674 95.2852 228.674 106.02Z"/>
</mask>
<path d="M221.965 123.91L168.726 76.935L167.926 77.8416L167.158 78.7749L221.965 123.91ZM206.758 136.434L172.542 74.2223L171.12 75.0043L169.735 75.8506L206.758 136.434ZM190.209 147.168L228.122 207.198L229.225 206.501L230.302 205.765L190.209 147.168ZM174.555 159.691L223.115 211.489L223.95 210.706L224.759 209.896L174.555 159.691ZM173.66 226.334L118.853 271.469L120.303 273.23L121.863 274.894L173.66 226.334ZM187.973 241.541L136.355 290.291L137.748 291.766L139.222 293.159L187.973 241.541ZM202.285 258.984L142.385 297.103L143.405 298.706L144.51 300.252L202.285 258.984ZM213.02 334.125L145.876 311.044L145.656 311.684L145.448 312.328L213.02 334.125ZM181.264 390.033L126.72 344.58L126.265 345.125L125.822 345.68L181.264 390.033ZM158.006 414.186L204.047 468.234L204.13 468.163L204.212 468.093L158.006 414.186ZM132.512 430.734L102.487 366.395L101.618 366.801L100.76 367.23L132.512 430.734ZM76.1562 388.244L137.602 423.818L137.992 423.143L138.368 422.46L76.1562 388.244ZM103.887 355.594L57.9037 301.496L57.2165 302.08L56.5443 302.682L103.887 355.594ZM132.064 324.732L192.647 361.755L193.087 361.036L193.51 360.306L132.064 324.732ZM127.592 280.453L67.9307 318.944L68.6575 320.071L69.4263 321.169L127.592 280.453ZM107.465 252.275L50.8713 295.149L51.1901 295.57L51.5151 295.986L107.465 252.275ZM86.8906 222.309L25.6933 258.307L26.0816 258.967L26.484 259.619L86.8906 222.309ZM88.2324 151.193L152.006 182.402L152.135 182.138L152.261 181.874L88.2324 151.193ZM114.621 112.281L166.792 160.439L167.096 160.11L167.395 159.778L114.621 112.281ZM157.674 106.02C157.674 101.592 158.424 96.2886 160.517 90.706C162.617 85.1076 165.598 80.4799 168.726 76.935L275.203 170.885C291.303 152.639 299.674 129.901 299.674 106.02H157.674ZM167.158 78.7749C168.911 76.6455 170.914 75.1174 172.542 74.2223L240.974 198.645C254.529 191.19 266.669 181.313 276.772 169.045L167.158 78.7749ZM169.735 75.8506C163.239 79.8205 156.698 84.068 150.116 88.5712L230.302 205.765C235.051 202.515 239.543 199.607 243.781 197.017L169.735 75.8506ZM152.295 87.1383C142.151 93.5454 132.815 101.022 124.35 109.487L224.759 209.896C225.836 208.82 226.936 207.947 228.122 207.198L152.295 87.1383ZM125.995 107.894C115.584 117.654 106.839 129.021 100.097 141.83L225.755 207.966C224.976 209.446 223.984 210.674 223.115 211.489L125.995 107.894ZM100.097 141.83C91.1416 158.845 87.4531 176.83 87.4531 194.131H229.453C229.453 197.12 228.746 202.283 225.755 207.966L100.097 141.83ZM87.4531 194.131C87.4531 212.201 91.9103 230.435 101.728 247.125L224.123 175.129C227.978 181.681 229.453 188.585 229.453 194.131H87.4531ZM101.728 247.125C106.801 255.748 112.581 263.854 118.853 271.469L228.467 181.199C226.39 178.676 225.014 176.644 224.123 175.129L101.728 247.125ZM121.863 274.894C126.402 279.736 131.233 284.869 136.355 290.291L239.591 192.791C234.574 187.479 229.863 182.474 225.457 177.774L121.863 274.894ZM139.222 293.159C140.11 293.997 141.189 295.223 142.385 297.103L262.185 220.866C255.032 209.626 246.57 199.223 236.723 189.923L139.222 293.159ZM144.51 300.252C144.93 300.841 145.842 302.292 146.887 305.112L280.047 255.794C275.128 242.513 268.585 229.652 260.06 217.716L144.51 300.252ZM146.887 305.112C146.316 303.573 146.939 304.289 146.939 308.631H288.939C288.939 291.504 286.581 273.435 280.047 255.794L146.887 305.112ZM146.939 308.631C146.939 307.191 147.093 306.636 146.996 307.142C146.899 307.643 146.607 308.917 145.876 311.044L280.163 357.206C285.155 342.685 288.939 326.166 288.939 308.631H146.939ZM145.448 312.328C144.094 316.527 141.944 321.575 138.614 327.494L262.378 397.111C269.783 383.947 275.982 370.21 280.591 355.922L145.448 312.328ZM138.614 327.494C135.494 333.042 131.584 338.743 126.72 344.58L235.807 435.486C245.852 423.432 254.764 410.647 262.378 397.111L138.614 327.494ZM125.822 345.68C121.323 351.303 116.641 356.129 111.8 360.278L204.212 468.093C216.069 457.93 226.891 446.654 236.705 434.387L125.822 345.68ZM111.965 360.137C108.422 363.155 105.259 365.102 102.487 366.395L162.537 495.073C177.655 488.018 191.488 478.932 204.047 468.234L111.965 360.137ZM100.76 367.23C99.741 367.739 101.923 366.443 106.57 366.443V508.443C127.916 508.443 147.392 502.675 164.264 494.239L100.76 367.23ZM106.57 366.443C108.511 366.443 111.261 366.722 114.455 367.709C117.683 368.707 120.598 370.193 123.01 371.902L40.9315 487.778C60.7549 501.819 83.4673 508.443 106.57 508.443V366.443ZM123.01 371.902C128.973 376.126 134.505 382.332 138.162 390.104C141.647 397.508 142.236 403.77 142.236 407.029H0.236328C0.236328 436.066 11.8485 467.177 40.9315 487.778L123.01 371.902ZM142.236 407.029C142.236 412.044 140.884 418.149 137.602 423.818L14.711 352.671C4.86892 369.67 0.236328 388.299 0.236328 407.029H142.236ZM138.368 422.46C138.956 421.391 139.857 420.04 141.298 418.418L35.1664 324.078C27.0662 333.191 19.9165 343.17 13.9449 354.028L138.368 422.46ZM141.298 418.418C144.171 415.186 147.463 411.876 151.229 408.506L56.5443 302.682C48.98 309.45 41.8353 316.576 35.1664 324.078L141.298 418.418ZM149.87 409.691C157.597 403.124 164.91 396.252 171.69 389.048L68.2861 291.726C65.5249 294.66 62.1038 297.926 57.9037 301.496L149.87 409.691ZM171.69 389.048C179.464 380.789 186.562 371.713 192.647 361.755L71.4814 287.709C71.0067 288.486 70.0545 289.847 68.2861 291.726L171.69 389.048ZM193.51 360.306C202.752 344.342 207.984 326.174 207.984 306.842H65.9844C65.9844 300.033 67.9366 293.792 70.6192 289.159L193.51 360.306ZM207.984 306.842C207.984 280.207 198.17 257.469 185.757 239.737L69.4263 321.169C69.5372 321.327 65.9844 316.182 65.9844 306.842H207.984ZM187.253 241.962C180.023 230.756 172.055 219.624 163.415 208.565L51.5151 295.986C57.7839 304.01 63.2337 311.664 67.9307 318.944L187.253 241.962ZM164.058 209.401C157.914 201.291 152.335 193.155 147.297 184.999L26.484 259.619C33.9693 271.738 42.1069 283.58 50.8713 295.149L164.058 209.401ZM148.088 186.31C147.815 185.845 148.067 186.161 148.375 187.224C148.696 188.333 148.945 189.802 148.945 191.447H6.94531C6.94531 216.09 14.1446 238.674 25.6933 258.307L148.088 186.31ZM148.945 191.447C148.945 191.419 148.943 190.768 149.306 189.347C149.679 187.888 150.447 185.588 152.006 182.402L24.459 119.985C13.8608 141.642 6.94531 165.715 6.94531 191.447H148.945ZM152.261 181.874C156.069 173.927 160.873 166.851 166.792 160.439L62.45 64.1234C46.9 80.9693 34.1119 99.8343 24.2035 120.513L152.261 181.874ZM167.395 159.778C173.325 153.189 179.627 148.133 186.369 144.238L115.33 21.2853C95.2359 32.8952 77.3857 47.5198 61.8472 64.7848L167.395 159.778ZM186.369 144.238C188.744 142.866 190.202 142.358 190.774 142.191C191.288 142.041 191.187 142.133 190.656 142.133V0.132812C162.974 0.132812 137.578 8.43081 115.33 21.2853L186.369 144.238ZM190.656 142.133C188.692 142.133 185.527 141.821 181.738 140.495C177.88 139.145 174.494 137.132 171.826 134.89L263.159 26.1603C241.954 8.34817 216.5 0.132812 190.656 0.132812V142.133ZM171.826 134.89C167.624 131.361 163.59 126.344 160.857 120.113C158.207 114.071 157.674 108.942 157.674 106.02H299.674C299.674 76.7437 288.447 47.4024 263.159 26.1603L171.826 134.89Z" fill="dodgerblue" mask="url(#path-1-outside-1_119_8)"/>
</svg>
