<svg width="300" height="509" viewBox="0 0 300 509" fill="none" xmlns="http://www.w3.org/2000/svg">
  <path
    d="M208.929 177.05L209.481 176.702L210.019 176.334C215.013 172.916 219.821 169.793 224.443 166.954C233.704 161.738 241.904 155.009 248.77 146.781C258.779 135.211 263.938 121.045 263.938 105.887C263.938 85.8816 256.46 66.9619 240.089 53.2101C225.759 41.1731 208.56 35.5 190.42 35.5C170.019 35.5 150.686 41.5871 132.853 51.8907C116.161 61.5352 101.248 73.7113 88.1475 88.2341C75.1067 102.394 64.3864 118.213 56.0444 135.589C47.3556 153.385 42.209 172.085 42.209 191.314C42.209 208.854 47.2995 225.29 56.0556 240.175L56.2498 240.505L56.451 240.831C63.3245 251.959 70.8223 262.875 78.9317 273.58L79.0911 273.79L79.2537 273.998C86.1152 282.781 92.1947 291.304 97.5249 299.566L97.8883 300.129L98.2727 300.678C99.8775 302.971 100.62 304.59 100.955 305.53C101.12 305.994 101.19 306.302 101.219 306.467C101.227 306.507 101.232 306.542 101.236 306.571C101.234 306.575 101.232 306.579 101.23 306.583C99.3908 309.512 96.9956 312.635 93.9009 315.923C90.1349 319.925 85.7407 324.093 80.6589 328.412L80.3153 328.704L79.9792 329.005C73.3643 334.923 67.1829 341.095 61.4631 347.53C55.1074 354.68 49.5789 362.399 44.9869 370.69C38.5692 381.925 35.5 394.24 35.5 406.896C35.5 426.484 43.0952 445.841 61.2148 458.676C74.7046 468.231 90.1607 472.811 106.334 472.811C121.014 472.811 134.925 468.898 147.714 462.571C159.584 456.983 170.607 449.751 180.79 441.077L180.831 441.042L180.873 441.006C190.887 432.422 200.101 422.852 208.526 412.354C217.181 401.937 224.766 391.013 231.201 379.574C237.529 368.324 242.679 356.867 246.465 345.212C250.539 333.279 253.203 320.882 253.203 308.498C253.203 294.567 251.278 280.837 246.521 267.991C242.684 257.632 237.73 247.893 231.495 239.006C226.145 230.726 219.96 223.141 212.91 216.36C208.417 211.602 204.167 207.086 200.158 202.813C197.566 199.598 195.442 196.564 193.719 193.717C193.736 192.777 193.838 192.184 193.912 191.864C193.99 191.53 194.065 191.373 194.104 191.3C195.206 189.207 196.647 187.286 198.598 185.457L199.016 185.066L199.421 184.661C202.344 181.737 205.504 179.214 208.929 177.05Z"
    stroke="#202020" stroke-width="71" />
</svg>